<?xml version="1.0" encoding="UTF-8" standalone="no"?>
<!-- Generator: Gravit.io -->
<svg xmlns="http://www.w3.org/2000/svg" xmlns:xlink="http://www.w3.org/1999/xlink" style="isolation:isolate" viewBox="0 0 500 500" width="500" height="500"><defs><clipPath id="_clipPath_SOEgIVokGyPOtikMZUZoL2kg8uwAPwQ4"><rect width="500" height="500"/></clipPath></defs><g clip-path="url(#_clipPath_SOEgIVokGyPOtikMZUZoL2kg8uwAPwQ4)"><path d=" M 8.772 537.507 L -13.985 452.046 L -13.985 452.046 Q 20.763 446.419 32.942 429.048 L 32.942 429.048 L 32.942 429.048 Q 45.121 411.677 38.982 373.771 L 38.982 373.771 L -47.482 -160.072 L 53.601 -176.444 L 143.646 379.511 L 143.646 379.511 Q 154.902 449.005 126.85 485.966 L 126.85 485.966 L 126.85 485.966 Q 98.799 522.926 37.201 532.903 L 37.201 532.903 L 8.772 537.507 L 8.772 537.507 Z " fill="rgb(49,140,99)"/><path d=" M 393.839 530.816 L 393.839 530.816 Q 347.246 538.363 291.894 534.361 L 291.894 534.361 L 291.894 534.361 Q 236.542 530.359 204.103 520.215 L 204.103 520.215 L 198.554 410.896 L 198.554 410.896 Q 310.981 444.554 389.952 431.764 L 389.952 431.764 L 389.952 431.764 Q 431.807 424.985 452.876 404.958 L 452.876 404.958 L 452.876 404.958 Q 473.945 384.932 468.829 353.344 L 468.829 353.344 L 468.829 353.344 Q 464.992 329.653 449.468 316.364 L 449.468 316.364 L 449.468 316.364 Q 433.943 303.075 407.736 296.379 L 407.736 296.379 L 407.736 296.379 Q 381.528 289.683 324.758 279.427 L 324.758 279.427 L 324.758 279.427 Q 271.403 270.24 235.101 256.264 L 235.101 256.264 L 235.101 256.264 Q 198.8 242.288 174.527 215.018 L 174.527 215.018 L 174.527 215.018 Q 150.255 187.748 143.093 143.524 L 143.093 143.524 L 143.093 143.524 Q 131.581 72.45 176.667 20.574 L 176.667 20.574 L 176.667 20.574 Q 221.753 -31.301 318.887 -47.034 L 318.887 -47.034 L 318.887 -47.034 Q 364.691 -54.452 411.762 -51.54 L 411.762 -51.54 L 411.762 -51.54 Q 458.833 -48.629 499.169 -39.764 L 499.169 -39.764 L 505.658 65.351 L 505.658 65.351 Q 453.243 51.959 410.846 47.885 L 410.846 47.885 L 410.846 47.885 Q 368.449 43.811 328.174 50.334 L 328.174 50.334 L 328.174 50.334 Q 283.161 57.625 261.9 76.466 L 261.9 76.466 L 261.9 76.466 Q 240.639 95.308 245.243 123.737 L 245.243 123.737 L 245.243 123.737 Q 248.824 145.849 263.762 158.018 L 263.762 158.018 L 263.762 158.018 Q 278.7 170.186 301.952 176.145 L 301.952 176.145 L 301.952 176.145 Q 325.203 182.104 370.022 188.622 L 370.022 188.622 L 370.022 188.622 Q 470.437 203.155 520.597 235.147 L 520.597 235.147 L 520.597 235.147 Q 570.758 267.139 581.757 335.053 L 581.757 335.053 L 581.757 335.053 Q 592.246 399.81 555.034 455.272 L 555.034 455.272 L 555.034 455.272 Q 517.823 510.735 393.839 530.816 L 393.839 530.816 L 393.839 530.816 Z " fill="rgb(49,140,99)"/></g></svg>