<?xml version="1.0" encoding="UTF-8" standalone="no"?>
<!-- Created with Inkscape (http://www.inkscape.org/) -->

<svg
   xmlns:dc="http://purl.org/dc/elements/1.1/"
   xmlns:cc="http://creativecommons.org/ns#"
   xmlns:rdf="http://www.w3.org/1999/02/22-rdf-syntax-ns#"
   xmlns:svg="http://www.w3.org/2000/svg"
   xmlns="http://www.w3.org/2000/svg"
   xmlns:sodipodi="http://sodipodi.sourceforge.net/DTD/sodipodi-0.dtd"
   xmlns:inkscape="http://www.inkscape.org/namespaces/inkscape"
   width="825.14838"
   height="477.41211"
   viewBox="0 0 218.32051 126.31529"
   version="1.1"
   id="svg3447"
   inkscape:version="0.92.2 5c3e80d, 2017-08-06"
   sodipodi:docname="od-logo-green.svg">
  <defs
     id="defs3441" />
  <sodipodi:namedview
     id="base"
     pagecolor="#ffffff"
     bordercolor="#666666"
     borderopacity="1.0"
     inkscape:pageopacity="0.0"
     inkscape:pageshadow="2"
     inkscape:zoom="0.53438208"
     inkscape:cx="181.22934"
     inkscape:cy="89.2351"
     inkscape:document-units="mm"
     inkscape:current-layer="layer1"
     showgrid="false"
     inkscape:pagecheckerboard="true"
     units="px"
     inkscape:window-width="1596"
     inkscape:window-height="962"
     inkscape:window-x="2067"
     inkscape:window-y="22"
     inkscape:window-maximized="0"
     inkscape:measure-start="776.161,669.381"
     inkscape:measure-end="776.161,669.764"
     inkscape:snap-intersection-paths="true"
     inkscape:object-paths="false"
     inkscape:showpageshadow="true"
     showguides="false"
     fit-margin-top="0"
     fit-margin-left="0"
     fit-margin-right="0"
     fit-margin-bottom="0">
    <sodipodi:guide
       position="114.06155,100.50818"
       orientation="0,1"
       id="guide835"
       inkscape:locked="false" />
  </sodipodi:namedview>
  <metadata
     id="metadata3444">
    <rdf:RDF>
      <cc:Work
         rdf:about="">
        <dc:format>image/svg+xml</dc:format>
        <dc:type
           rdf:resource="http://purl.org/dc/dcmitype/StillImage" />
        <dc:title></dc:title>
      </cc:Work>
    </rdf:RDF>
  </metadata>
  <g
     inkscape:groupmode="layer"
     id="layer2"
     inkscape:label="obscure-detour"
     style="display:none"
     transform="translate(-52.551829,-78.723359)">
    <flowRoot
       xml:space="preserve"
       id="flowRoot878"
       style="font-style:normal;font-weight:normal;font-size:40px;line-height:1.25;font-family:sans-serif;letter-spacing:0px;word-spacing:0px;display:inline;fill:#000000;fill-opacity:1;stroke:none"
       transform="matrix(0.26458333,0,0,0.26458333,-24.989874,-8.882276)"><flowRegion
         id="flowRegion880"><rect
           id="rect882"
           width="945.77081"
           height="111.13097"
           x="206.05533"
           y="816.82971" /></flowRegion><flowPara
         id="flowPara884"
         style="font-style:normal;font-variant:normal;font-weight:bold;font-stretch:normal;font-size:48px;font-family:Raleway;-inkscape-font-specification:'Raleway Bold';text-align:center;letter-spacing:3.68000197px;text-anchor:middle;fill:#2d3949;fill-opacity:1"><flowSpan
           style="font-style:normal;font-variant:normal;font-weight:500;font-stretch:normal;font-family:Raleway;-inkscape-font-specification:'Raleway Medium'"
           id="flowSpan896">OBSCURE</flowSpan><flowSpan
           style="font-style:normal;font-variant:normal;font-weight:900;font-stretch:normal;font-size:48px;font-family:Raleway;-inkscape-font-specification:'Raleway Heavy';letter-spacing:3.68000197px"
           id="flowSpan890">D</flowSpan><flowSpan
           style="font-style:normal;font-variant:normal;font-weight:900;font-stretch:normal;font-family:Raleway;-inkscape-font-specification:'Raleway Heavy';letter-spacing:3.68000197px"
           id="flowSpan894">ETOUR</flowSpan></flowPara></flowRoot>  </g>
  <g
     inkscape:label="D"
     inkscape:groupmode="layer"
     id="layer1"
     transform="translate(-52.551829,-58.223363)"
     style="display:inline">
    <path
       style="font-style:normal;font-variant:normal;font-weight:900;font-stretch:normal;font-size:666.66668701px;line-height:1.25;font-family:Raleway;-inkscape-font-specification:'Raleway Heavy';text-align:start;letter-spacing:-100px;word-spacing:0px;text-anchor:start;fill:#318c63;fill-opacity:1;stroke:none;stroke-width:0.99999994"
       d="m 438.20117,297.53711 c -34.75999,0 -66.88131,6.60078 -96.36133,19.80078 -29.03999,12.76 -54.33843,30.14063 -75.89843,52.14063 -21.12,21.55999 -37.62,46.64022 -49.5,75.24023 -11.88,28.59999 -17.82032,58.29961 -17.82032,89.09961 0,30.36001 5.72016,59.83947 17.16016,88.43945 11.44,28.60002 27.49969,54.12056 48.17969,76.56055 20.68,22 45.54008,39.81897 74.58008,53.45898 29.04001,13.63999 61.37954,20.46094 97.01953,20.46094 2.96213,0 5.89581,-0.0663 8.8164,-0.16211 31.43849,-1.76335 129.65348,-11.79936 145.44141,-88.37109 l -47.94141,-25.32031 61.22657,-32.50782 64.61914,-34.30859 13.40039,-7.11524 c -0.84083,60.50064 0.63953,95.69468 -0.20117,156.19532 l -46.43946,-31.97852 c -23.76748,39.09479 -20.17024,63.95845 -4.98633,65.67969 0.29767,0.0338 1.06693,0.0673 2.05274,0.0996 h 153.55469 c 36,0 68.66668,-5.55491 98,-16.66602 29.33334,-11.55555 54.44313,-27.55555 75.33203,-48 20.88889,-20.88889 36.88894,-45.77907 47.99995,-74.66797 11.5556,-29.33334 17.334,-62 17.334,-98 0,-32.44444 -5.1117,-62.88759 -15.334,-91.33203 -10.22211,-28.88888 -25.33198,-54.00065 -45.33198,-75.33398 -20,-21.33333 -44.89018,-38.22157 -74.66797,-50.66602 -29.77777,-12.44444 -64.22093,-18.66797 -103.33203,-18.66797 h -182 v 63.55469 c -19.2867,-19.2409 -41.9076,-34.97139 -67.88282,-47.17187 -29.04,-13.64 -61.37954,-20.46094 -97.01953,-20.46094 z m -1.98047,114.18164 c 18.03999,0 33.65938,3.51859 46.85938,10.55859 13.63999,6.59999 24.86015,15.62055 33.66015,27.06055 9.24002,11.00001 16.06094,23.97945 20.46094,38.93945 4.4,14.51999 6.59961,29.70102 6.59961,45.54102 0,15.40001 -2.19961,30.57906 -6.59961,45.53906 -3.96001,14.96 -10.34062,28.37978 -19.14062,40.25977 -8.35999,11.44 -19.35999,20.90084 -33,28.38086 -13.63999,7.04 -29.69969,10.56054 -48.17969,10.56054 -18.48,0 -34.5397,-3.52054 -48.17969,-10.56054 -13.20001,-7.04 -24.2,-16.28071 -33,-27.72071 -8.8,-11.44 -15.40078,-24.41944 -19.80078,-38.93945 -4.4,-14.96 -6.59961,-30.35922 -6.59961,-46.19922 0,-15.39999 1.97945,-30.36084 5.93945,-44.88086 4.4,-14.96 11.00079,-28.15961 19.80079,-39.59961 8.8,-11.87998 19.8,-21.34086 33,-28.38086 13.64001,-7.04 29.69968,-10.55859 48.17968,-10.55859 z m 296.88282,3.23047 h 52 c 16.44442,0 31.33267,3.11176 44.66601,9.33398 13.33334,5.77778 24.44512,13.99935 33.33399,24.66602 9.33334,10.66665 16.44313,23.55488 21.33203,38.66601 4.88889,15.11111 7.33398,31.77779 7.33398,50 0,17.77779 -2.44509,34.22288 -7.33398,49.33399 -4.44445,15.1111 -11.33268,28.22285 -20.66602,39.33398 -8.88887,11.11111 -20.00064,19.77779 -33.33398,26 -13.33334,6.22224 -28.44317,9.33203 -45.33203,9.33203 h -52 z"
       transform="matrix(0.26458333,0,0,0.26458333,0,-20.499996)"
       id="path860"
       inkscape:connector-curvature="0" />
    <flowRoot
       xml:space="preserve"
       id="flowRoot870"
       style="font-style:normal;font-weight:normal;font-size:40px;line-height:1.25;font-family:sans-serif;letter-spacing:0px;word-spacing:0px;fill:#000000;fill-opacity:1;stroke:none"><flowRegion
         id="flowRegion872"><rect
           id="rect874"
           width="912.20001"
           height="106.50051"
           x="125.02234"
           y="800.62311" /></flowRegion><flowPara
         id="flowPara876" /></flowRoot>  </g>
  <g
     inkscape:groupmode="layer"
     id="layer5"
     inkscape:label="O"
     style="display:inline"
     transform="translate(-52.551829,-78.723359)">
    <flowRoot
       xml:space="preserve"
       id="flowRoot862"
       style="font-style:normal;font-weight:normal;font-size:40px;line-height:1.25;font-family:sans-serif;letter-spacing:0px;word-spacing:0px;fill:#000000;fill-opacity:1;stroke:none"><flowRegion
         id="flowRegion864"><rect
           id="rect866"
           width="1048.7985"
           height="569.5462"
           x="9.2609138"
           y="216.02791" /></flowRegion><flowPara
         id="flowPara868" /></flowRoot>  </g>
  <g
     inkscape:groupmode="layer"
     id="layer6"
     inkscape:label="arrow 1"
     style="display:none"
     transform="translate(-52.551829,-78.723359)">
    <path
       id="path1262-3"
       sodipodi:nodetypes="ccccccsc"
       style="display:inline;opacity:1;fill:#ffffff;fill-opacity:1;stroke-width:0.22602904"
       inkscape:connector-curvature="0"
       d="m 115.49243,204.51175 c 4.48261,-0.19085 35.93713,-1.04451 40.56348,-23.48239 l -12.6842,-6.69961 36.84204,-19.5609 c -0.22247,16.00746 0.16914,25.31919 -0.0533,41.32665 l -12.28689,-8.46095 c -6.28848,10.34383 -5.33677,16.92249 -1.31936,17.3779 0.55459,0.0629 6.34352,0.11013 7.22414,0.22799" />
  </g>
</svg>
